<svg xmlns="http://www.w3.org/2000/svg" viewBox="0 0 48 48">
  <path fill="#FFC107" d="M43.611 20.083H42V20H24v8h11.303C33.654 32.657 29.204 36 24 36c-6.627 0-12-5.373-12-12s5.373-12 12-12c3.059 0 5.842 1.154 7.961 3.039l5.657-5.657C34.046 6.053 29.268 4 24 4 12.955 4 4 12.955 4 24s8.955 20 20 20 20-8.955 20-20c0-1.341-.138-2.65-.389-3.917z"/>
  <path fill="#FF3D00" d="M6.306 14.691l6.571 4.819C14.655 16.108 18.961 13 24 13c3.059 0 5.842 1.154 7.961 3.039l5.657-5.657C34.046 6.053 29.268 4 24 4c-7.682 0-14.348 4.337-17.694 10.691z"/>
  <path fill="#4CAF50" d="M24 44c5.104 0 9.786-1.956 13.348-5.144l-6.163-5.214C29.13 35.091 26.685 36 24 36c-5.183 0-9.621-3.317-11.283-7.946l-6.522 5.025C9.505 39.556 16.227 44 24 44z"/>
  <path fill="#1976D2" d="M43.611 20.083H42V20H24v8h11.303c-.793 2.269-2.252 4.166-4.118 5.542l.003-.002 6.163 5.214C36.912 39.091 44 34 44 24c0-1.341-.138-2.65-.389-3.917z"/>
</svg>